<svg width="136" height="47" viewBox="0 0 136 47" fill="none" xmlns="http://www.w3.org/2000/svg">
    <path
        d="M21.9344 37.6717L22.6122 9.41954L22.7752 2.55901L1.28668 23.0428L21.7714 44.5322L21.9344 37.6717Z"
        fill="#1D4ED8" />
    <path d="M40.4169 0.698943L25.7979 45.6947L30.9678 45.8188L45.5858 0.824889L40.4169 0.698943Z"
        fill="#1D4ED8" />
    <path d="M49.5795 0.445953L34.9605 45.4408L40.1304 45.5649L54.7484 0.569176L49.5795 0.445953Z"
        fill="#1D4ED8" />
    <path d="M122.561 0.943592V46.2456H135.246V0.943592H122.561Z" fill="#1D4ED8" />
    <path d="M6.588 29.6533L6.588 16.9688L0.553772 23.0429L6.588 29.6533Z" fill="#1D4ED8" />
    <path
        d="M59.1382 46.2456L118.937 46.2456V35.3731H86.2207L86.9292 33.561H118.937V11.5325L85.1951 11.7309L83.3576 9.66332L118.937 9.76208V0.943593L59.1382 0.943593V46.2456ZM88.0101 23.0428L67.5264 44.5323L67.3633 37.6717L81.1496 23.2068L66.6856 9.4196L66.5216 2.55907L88.0101 23.0428Z"
        fill="#1D4ED8" />
</svg>